<mxfile host="65bd71144e">
    <diagram id="dF4_dbqF28c26Ipi0Y21" name="Page-1">
        <mxGraphModel dx="1864" dy="1179" grid="1" gridSize="10" guides="1" tooltips="1" connect="1" arrows="1" fold="1" page="1" pageScale="1" pageWidth="850" pageHeight="1100" math="0" shadow="0">
            <root>
                <mxCell id="0"/>
                <mxCell id="1" parent="0"/>
                <mxCell id="2" value="" style="whiteSpace=wrap;html=1;" parent="1" vertex="1">
                    <mxGeometry x="40" y="40" width="480" height="630" as="geometry"/>
                </mxCell>
                <mxCell id="7" value="" style="rounded=0;whiteSpace=wrap;html=1;fillColor=#d5e8d4;strokeColor=#82b366;" parent="1" vertex="1">
                    <mxGeometry x="40" y="40" width="480" height="170" as="geometry"/>
                </mxCell>
                <mxCell id="8" value="" style="ellipse;whiteSpace=wrap;html=1;aspect=fixed;" parent="1" vertex="1">
                    <mxGeometry x="418" y="85" width="80" height="80" as="geometry"/>
                </mxCell>
                <mxCell id="9" value="" style="shape=umlActor;verticalLabelPosition=bottom;verticalAlign=top;html=1;outlineConnect=0;" parent="1" vertex="1">
                    <mxGeometry x="443" y="95" width="30" height="60" as="geometry"/>
                </mxCell>
                <mxCell id="10" value="&lt;font style=&quot;font-size: 16px;&quot;&gt;User (page de l&#39;utilisateur (settings, etc)&lt;/font&gt;" style="text;html=1;align=center;verticalAlign=middle;resizable=0;points=[];autosize=1;strokeColor=none;fillColor=none;" parent="1" vertex="1">
                    <mxGeometry x="40" y="10" width="300" height="30" as="geometry"/>
                </mxCell>
                <mxCell id="11" value="" style="sketch=0;outlineConnect=0;fontColor=#232F3E;gradientColor=none;fillColor=#ED7100;strokeColor=none;dashed=0;verticalLabelPosition=bottom;verticalAlign=top;align=center;html=1;fontSize=12;fontStyle=0;aspect=fixed;pointerEvents=1;shape=mxgraph.aws4.container_registry_image;" parent="1" vertex="1">
                    <mxGeometry x="90" y="310" width="80" height="80" as="geometry"/>
                </mxCell>
                <mxCell id="12" value="Favorites" style="text;html=1;align=center;verticalAlign=middle;whiteSpace=wrap;rounded=0;" parent="1" vertex="1">
                    <mxGeometry x="90" y="270" width="80" height="30" as="geometry"/>
                </mxCell>
                <mxCell id="13" value="" style="sketch=0;outlineConnect=0;fontColor=#232F3E;gradientColor=none;fillColor=#ED7100;strokeColor=none;dashed=0;verticalLabelPosition=bottom;verticalAlign=top;align=center;html=1;fontSize=12;fontStyle=0;aspect=fixed;pointerEvents=1;shape=mxgraph.aws4.container_registry_image;" parent="1" vertex="1">
                    <mxGeometry x="190" y="310" width="80" height="80" as="geometry"/>
                </mxCell>
                <mxCell id="14" value="" style="sketch=0;outlineConnect=0;fontColor=#232F3E;gradientColor=none;fillColor=#ED7100;strokeColor=none;dashed=0;verticalLabelPosition=bottom;verticalAlign=top;align=center;html=1;fontSize=12;fontStyle=0;aspect=fixed;pointerEvents=1;shape=mxgraph.aws4.container_registry_image;" parent="1" vertex="1">
                    <mxGeometry x="290" y="310" width="80" height="80" as="geometry"/>
                </mxCell>
                <mxCell id="15" value="" style="sketch=0;outlineConnect=0;fontColor=#232F3E;gradientColor=none;fillColor=#ED7100;strokeColor=none;dashed=0;verticalLabelPosition=bottom;verticalAlign=top;align=center;html=1;fontSize=12;fontStyle=0;aspect=fixed;pointerEvents=1;shape=mxgraph.aws4.container_registry_image;" parent="1" vertex="1">
                    <mxGeometry x="390" y="310" width="80" height="80" as="geometry"/>
                </mxCell>
                <mxCell id="17" value="see more" style="rounded=1;whiteSpace=wrap;html=1;fillColor=#dae8fc;strokeColor=#6c8ebf;strokeWidth=3;" parent="1" vertex="1">
                    <mxGeometry x="397.5" y="400" width="65" height="20" as="geometry"/>
                </mxCell>
                <mxCell id="18" value="Settings" style="text;html=1;align=center;verticalAlign=middle;whiteSpace=wrap;rounded=0;" parent="1" vertex="1">
                    <mxGeometry x="90" y="500" width="80" height="30" as="geometry"/>
                </mxCell>
                <mxCell id="19" value="Swap color" style="rounded=1;whiteSpace=wrap;html=1;fillColor=#dae8fc;strokeColor=#6c8ebf;strokeWidth=3;" parent="1" vertex="1">
                    <mxGeometry x="97.5" y="530" width="82.5" height="20" as="geometry"/>
                </mxCell>
                <mxCell id="20" value="" style="whiteSpace=wrap;html=1;fillColor=#e1d5e7;strokeColor=#9673a6;" parent="1" vertex="1">
                    <mxGeometry x="640" y="40" width="480" height="630" as="geometry"/>
                </mxCell>
                <mxCell id="25" value="" style="rounded=0;whiteSpace=wrap;html=1;fillColor=#d5e8d4;strokeColor=#82b366;" parent="1" vertex="1">
                    <mxGeometry x="640" y="40" width="480" height="170" as="geometry"/>
                </mxCell>
                <mxCell id="26" value="" style="ellipse;whiteSpace=wrap;html=1;aspect=fixed;" parent="1" vertex="1">
                    <mxGeometry x="1018" y="85" width="80" height="80" as="geometry"/>
                </mxCell>
                <mxCell id="27" value="" style="shape=umlActor;verticalLabelPosition=bottom;verticalAlign=top;html=1;outlineConnect=0;" parent="1" vertex="1">
                    <mxGeometry x="1043" y="95" width="30" height="60" as="geometry"/>
                </mxCell>
                <mxCell id="28" value="" style="sketch=0;outlineConnect=0;fontColor=#232F3E;gradientColor=none;fillColor=#ED7100;strokeColor=none;dashed=0;verticalLabelPosition=bottom;verticalAlign=top;align=center;html=1;fontSize=12;fontStyle=0;aspect=fixed;pointerEvents=1;shape=mxgraph.aws4.container_registry_image;" parent="1" vertex="1">
                    <mxGeometry x="690" y="310" width="80" height="80" as="geometry"/>
                </mxCell>
                <mxCell id="29" value="Favorites" style="text;html=1;align=center;verticalAlign=middle;whiteSpace=wrap;rounded=0;" parent="1" vertex="1">
                    <mxGeometry x="690" y="270" width="80" height="30" as="geometry"/>
                </mxCell>
                <mxCell id="30" value="" style="sketch=0;outlineConnect=0;fontColor=#232F3E;gradientColor=none;fillColor=#ED7100;strokeColor=none;dashed=0;verticalLabelPosition=bottom;verticalAlign=top;align=center;html=1;fontSize=12;fontStyle=0;aspect=fixed;pointerEvents=1;shape=mxgraph.aws4.container_registry_image;" parent="1" vertex="1">
                    <mxGeometry x="790" y="310" width="80" height="80" as="geometry"/>
                </mxCell>
                <mxCell id="31" value="" style="sketch=0;outlineConnect=0;fontColor=#232F3E;gradientColor=none;fillColor=#ED7100;strokeColor=none;dashed=0;verticalLabelPosition=bottom;verticalAlign=top;align=center;html=1;fontSize=12;fontStyle=0;aspect=fixed;pointerEvents=1;shape=mxgraph.aws4.container_registry_image;" parent="1" vertex="1">
                    <mxGeometry x="890" y="310" width="80" height="80" as="geometry"/>
                </mxCell>
                <mxCell id="32" value="" style="sketch=0;outlineConnect=0;fontColor=#232F3E;gradientColor=none;fillColor=#ED7100;strokeColor=none;dashed=0;verticalLabelPosition=bottom;verticalAlign=top;align=center;html=1;fontSize=12;fontStyle=0;aspect=fixed;pointerEvents=1;shape=mxgraph.aws4.container_registry_image;" parent="1" vertex="1">
                    <mxGeometry x="990" y="310" width="80" height="80" as="geometry"/>
                </mxCell>
                <mxCell id="33" value="see more" style="rounded=1;whiteSpace=wrap;html=1;fillColor=#dae8fc;strokeColor=#6c8ebf;strokeWidth=3;" parent="1" vertex="1">
                    <mxGeometry x="997.5" y="400" width="65" height="20" as="geometry"/>
                </mxCell>
                <mxCell id="34" value="Settings" style="text;html=1;align=center;verticalAlign=middle;whiteSpace=wrap;rounded=0;" parent="1" vertex="1">
                    <mxGeometry x="690" y="501" width="80" height="30" as="geometry"/>
                </mxCell>
                <mxCell id="35" value="Swap color" style="rounded=1;whiteSpace=wrap;html=1;fillColor=#dae8fc;strokeColor=#6c8ebf;strokeWidth=3;" parent="1" vertex="1">
                    <mxGeometry x="697.5" y="531" width="82.5" height="20" as="geometry"/>
                </mxCell>
                <mxCell id="36" style="edgeStyle=none;html=1;entryX=0;entryY=0.667;entryDx=0;entryDy=0;entryPerimeter=0;" parent="1" source="19" edge="1">
                    <mxGeometry relative="1" as="geometry">
                        <mxPoint x="640" y="540.21" as="targetPoint"/>
                    </mxGeometry>
                </mxCell>
                <mxCell id="37" value="" style="whiteSpace=wrap;html=1;" parent="1" vertex="1">
                    <mxGeometry x="-640.23" y="40" width="480" height="630" as="geometry"/>
                </mxCell>
                <mxCell id="42" value="" style="rounded=0;whiteSpace=wrap;html=1;fillColor=#d5e8d4;strokeColor=#82b366;" parent="1" vertex="1">
                    <mxGeometry x="-640.23" y="40" width="480" height="170" as="geometry"/>
                </mxCell>
                <mxCell id="43" value="" style="ellipse;whiteSpace=wrap;html=1;aspect=fixed;" parent="1" vertex="1">
                    <mxGeometry x="-590.23" y="260" width="80" height="80" as="geometry"/>
                </mxCell>
                <mxCell id="44" value="" style="shape=umlActor;verticalLabelPosition=bottom;verticalAlign=top;html=1;outlineConnect=0;" parent="1" vertex="1">
                    <mxGeometry x="-565.23" y="270" width="30" height="60" as="geometry"/>
                </mxCell>
                <mxCell id="45" value="&lt;font style=&quot;font-size: 16px;&quot;&gt;User (page de création du compte)&lt;/font&gt;" style="text;html=1;align=center;verticalAlign=middle;resizable=0;points=[];autosize=1;strokeColor=none;fillColor=none;" parent="1" vertex="1">
                    <mxGeometry x="-640.23" y="10" width="270" height="30" as="geometry"/>
                </mxCell>
                <mxCell id="54" value="Add image" style="text;html=1;align=center;verticalAlign=middle;resizable=0;points=[];autosize=1;strokeColor=none;fillColor=none;" parent="1" vertex="1">
                    <mxGeometry x="-590.23" y="230" width="80" height="30" as="geometry"/>
                </mxCell>
                <mxCell id="56" value="Username" style="rounded=1;whiteSpace=wrap;html=1;" parent="1" vertex="1">
                    <mxGeometry x="-590.23" y="360" width="170" height="30" as="geometry"/>
                </mxCell>
                <mxCell id="57" value="Email" style="rounded=1;whiteSpace=wrap;html=1;" parent="1" vertex="1">
                    <mxGeometry x="-379.23" y="360" width="170" height="30" as="geometry"/>
                </mxCell>
                <mxCell id="58" value="-- Select gender --" style="rounded=1;whiteSpace=wrap;html=1;" parent="1" vertex="1">
                    <mxGeometry x="-595.5" y="555" width="170" height="30" as="geometry"/>
                </mxCell>
                <mxCell id="59" value="-- Select country --" style="rounded=1;whiteSpace=wrap;html=1;" parent="1" vertex="1">
                    <mxGeometry x="-384.5" y="555" width="170" height="30" as="geometry"/>
                </mxCell>
                <mxCell id="60" value="Gender" style="swimlane;fontStyle=0;childLayout=stackLayout;horizontal=1;startSize=30;horizontalStack=0;resizeParent=1;resizeParentMax=0;resizeLast=0;collapsible=1;marginBottom=0;whiteSpace=wrap;html=1;" parent="1" vertex="1">
                    <mxGeometry x="-825" y="545" width="140" height="120" as="geometry"/>
                </mxCell>
                <mxCell id="61" value="Male" style="text;strokeColor=none;fillColor=none;align=left;verticalAlign=middle;spacingLeft=4;spacingRight=4;overflow=hidden;points=[[0,0.5],[1,0.5]];portConstraint=eastwest;rotatable=0;whiteSpace=wrap;html=1;" parent="60" vertex="1">
                    <mxGeometry y="30" width="140" height="30" as="geometry"/>
                </mxCell>
                <mxCell id="62" value="Female" style="text;strokeColor=none;fillColor=none;align=left;verticalAlign=middle;spacingLeft=4;spacingRight=4;overflow=hidden;points=[[0,0.5],[1,0.5]];portConstraint=eastwest;rotatable=0;whiteSpace=wrap;html=1;" parent="60" vertex="1">
                    <mxGeometry y="60" width="140" height="30" as="geometry"/>
                </mxCell>
                <mxCell id="63" value="Other" style="text;strokeColor=none;fillColor=none;align=left;verticalAlign=middle;spacingLeft=4;spacingRight=4;overflow=hidden;points=[[0,0.5],[1,0.5]];portConstraint=eastwest;rotatable=0;whiteSpace=wrap;html=1;" parent="60" vertex="1">
                    <mxGeometry y="90" width="140" height="30" as="geometry"/>
                </mxCell>
                <mxCell id="65" style="edgeStyle=none;html=1;" parent="1" source="58" edge="1">
                    <mxGeometry relative="1" as="geometry">
                        <mxPoint x="-685" y="570" as="targetPoint"/>
                    </mxGeometry>
                </mxCell>
                <mxCell id="66" value="Country" style="swimlane;fontStyle=0;childLayout=stackLayout;horizontal=1;startSize=30;horizontalStack=0;resizeParent=1;resizeParentMax=0;resizeLast=0;collapsible=1;marginBottom=0;whiteSpace=wrap;html=1;" parent="1" vertex="1">
                    <mxGeometry x="-125" y="545" width="140" height="120" as="geometry"/>
                </mxCell>
                <mxCell id="67" value="Belgium" style="text;strokeColor=none;fillColor=none;align=left;verticalAlign=middle;spacingLeft=4;spacingRight=4;overflow=hidden;points=[[0,0.5],[1,0.5]];portConstraint=eastwest;rotatable=0;whiteSpace=wrap;html=1;" parent="66" vertex="1">
                    <mxGeometry y="30" width="140" height="30" as="geometry"/>
                </mxCell>
                <mxCell id="68" value="Nederlands" style="text;strokeColor=none;fillColor=none;align=left;verticalAlign=middle;spacingLeft=4;spacingRight=4;overflow=hidden;points=[[0,0.5],[1,0.5]];portConstraint=eastwest;rotatable=0;whiteSpace=wrap;html=1;" parent="66" vertex="1">
                    <mxGeometry y="60" width="140" height="30" as="geometry"/>
                </mxCell>
                <mxCell id="69" value="..." style="text;strokeColor=none;fillColor=none;align=left;verticalAlign=middle;spacingLeft=4;spacingRight=4;overflow=hidden;points=[[0,0.5],[1,0.5]];portConstraint=eastwest;rotatable=0;whiteSpace=wrap;html=1;" parent="66" vertex="1">
                    <mxGeometry y="90" width="140" height="30" as="geometry"/>
                </mxCell>
                <mxCell id="70" style="edgeStyle=none;html=1;entryX=0;entryY=0.208;entryDx=0;entryDy=0;entryPerimeter=0;" parent="1" source="59" target="66" edge="1">
                    <mxGeometry relative="1" as="geometry"/>
                </mxCell>
                <mxCell id="71" value="Firstname" style="rounded=1;whiteSpace=wrap;html=1;" parent="1" vertex="1">
                    <mxGeometry x="-590.73" y="410" width="170" height="30" as="geometry"/>
                </mxCell>
                <mxCell id="72" value="&lt;span style=&quot;color: rgb(0, 0, 0);&quot;&gt;Lastname&lt;/span&gt;" style="rounded=1;whiteSpace=wrap;html=1;" parent="1" vertex="1">
                    <mxGeometry x="-379.73" y="410" width="170" height="30" as="geometry"/>
                </mxCell>
                <mxCell id="127" value="" style="strokeWidth=1;shadow=0;dashed=0;align=center;html=1;shape=mxgraph.mockup.forms.rrect;rSize=5;strokeColor=#999999;fillColor=#ffffff;" parent="1" vertex="1">
                    <mxGeometry x="-590.23" y="450" width="380" height="95" as="geometry"/>
                </mxCell>
                <mxCell id="128" value="October 2014" style="strokeWidth=1;shadow=0;dashed=0;align=center;html=1;shape=mxgraph.mockup.forms.anchor;fontColor=#999999;" parent="127" vertex="1">
                    <mxGeometry x="71.25" y="4.342857142857143" width="237.5" height="10.857142857142858" as="geometry"/>
                </mxCell>
                <mxCell id="129" value="&lt;" style="strokeWidth=1;shadow=0;dashed=0;align=center;html=1;shape=mxgraph.mockup.forms.rrect;rSize=4;strokeColor=#999999;fontColor=#008cff;fontSize=19;fontStyle=1;" parent="127" vertex="1">
                    <mxGeometry x="19" y="4.342857142857143" width="59.375" height="10.857142857142858" as="geometry"/>
                </mxCell>
                <mxCell id="130" value="&gt;" style="strokeWidth=1;shadow=0;dashed=0;align=center;html=1;shape=mxgraph.mockup.forms.rrect;rSize=4;strokeColor=#999999;fontColor=#008cff;fontSize=19;fontStyle=1;" parent="127" vertex="1">
                    <mxGeometry x="301.625" y="4.342857142857143" width="59.375" height="10.857142857142858" as="geometry"/>
                </mxCell>
                <mxCell id="131" value="Mo" style="strokeWidth=1;shadow=0;dashed=0;align=center;html=1;shape=mxgraph.mockup.forms.anchor;fontColor=#999999;" parent="127" vertex="1">
                    <mxGeometry x="23.75" y="15.200000000000001" width="47.5" height="10.857142857142858" as="geometry"/>
                </mxCell>
                <mxCell id="132" value="Tu" style="strokeWidth=1;shadow=0;dashed=0;align=center;html=1;shape=mxgraph.mockup.forms.anchor;fontColor=#999999;" parent="127" vertex="1">
                    <mxGeometry x="71.25" y="15.200000000000001" width="47.5" height="10.857142857142858" as="geometry"/>
                </mxCell>
                <mxCell id="133" value="We" style="strokeWidth=1;shadow=0;dashed=0;align=center;html=1;shape=mxgraph.mockup.forms.anchor;fontColor=#999999;" parent="127" vertex="1">
                    <mxGeometry x="118.75" y="15.200000000000001" width="47.5" height="10.857142857142858" as="geometry"/>
                </mxCell>
                <mxCell id="134" value="Th" style="strokeWidth=1;shadow=0;dashed=0;align=center;html=1;shape=mxgraph.mockup.forms.anchor;fontColor=#999999;" parent="127" vertex="1">
                    <mxGeometry x="166.25" y="15.200000000000001" width="47.5" height="10.857142857142858" as="geometry"/>
                </mxCell>
                <mxCell id="135" value="Fr" style="strokeWidth=1;shadow=0;dashed=0;align=center;html=1;shape=mxgraph.mockup.forms.anchor;fontColor=#999999;" parent="127" vertex="1">
                    <mxGeometry x="213.75" y="15.200000000000001" width="47.5" height="10.857142857142858" as="geometry"/>
                </mxCell>
                <mxCell id="136" value="Sa" style="strokeWidth=1;shadow=0;dashed=0;align=center;html=1;shape=mxgraph.mockup.forms.anchor;fontColor=#999999;" parent="127" vertex="1">
                    <mxGeometry x="261.25" y="15.200000000000001" width="47.5" height="10.857142857142858" as="geometry"/>
                </mxCell>
                <mxCell id="137" value="Su" style="strokeWidth=1;shadow=0;dashed=0;align=center;html=1;shape=mxgraph.mockup.forms.anchor;fontColor=#999999;" parent="127" vertex="1">
                    <mxGeometry x="308.75" y="15.200000000000001" width="47.5" height="10.857142857142858" as="geometry"/>
                </mxCell>
                <mxCell id="138" value="1" style="strokeWidth=1;shadow=0;dashed=0;align=center;html=1;shape=mxgraph.mockup.forms.rrect;rSize=0;strokeColor=#999999;fontColor=#999999;" parent="127" vertex="1">
                    <mxGeometry x="23.75" y="26.057142857142857" width="47.5" height="10.857142857142858" as="geometry"/>
                </mxCell>
                <mxCell id="139" value="2" style="strokeWidth=1;shadow=0;dashed=0;align=center;html=1;shape=mxgraph.mockup.forms.rrect;rSize=0;strokeColor=#999999;fontColor=#999999;" parent="127" vertex="1">
                    <mxGeometry x="71.25" y="26.057142857142857" width="47.5" height="10.857142857142858" as="geometry"/>
                </mxCell>
                <mxCell id="140" value="3" style="strokeWidth=1;shadow=0;dashed=0;align=center;html=1;shape=mxgraph.mockup.forms.rrect;rSize=0;strokeColor=#999999;fontColor=#999999;" parent="127" vertex="1">
                    <mxGeometry x="118.75" y="26.057142857142857" width="47.5" height="10.857142857142858" as="geometry"/>
                </mxCell>
                <mxCell id="141" value="4" style="strokeWidth=1;shadow=0;dashed=0;align=center;html=1;shape=mxgraph.mockup.forms.rrect;rSize=0;strokeColor=#999999;fontColor=#999999;" parent="127" vertex="1">
                    <mxGeometry x="166.25" y="26.057142857142857" width="47.5" height="10.857142857142858" as="geometry"/>
                </mxCell>
                <mxCell id="142" value="5" style="strokeWidth=1;shadow=0;dashed=0;align=center;html=1;shape=mxgraph.mockup.forms.rrect;rSize=0;strokeColor=#999999;fontColor=#999999;" parent="127" vertex="1">
                    <mxGeometry x="213.75" y="26.057142857142857" width="47.5" height="10.857142857142858" as="geometry"/>
                </mxCell>
                <mxCell id="143" value="6" style="strokeWidth=1;shadow=0;dashed=0;align=center;html=1;shape=mxgraph.mockup.forms.rrect;rSize=0;strokeColor=#999999;fontColor=#999999;" parent="127" vertex="1">
                    <mxGeometry x="261.25" y="26.057142857142857" width="47.5" height="10.857142857142858" as="geometry"/>
                </mxCell>
                <mxCell id="144" value="7" style="strokeWidth=1;shadow=0;dashed=0;align=center;html=1;shape=mxgraph.mockup.forms.rrect;rSize=0;strokeColor=#999999;fontColor=#999999;" parent="127" vertex="1">
                    <mxGeometry x="308.75" y="26.057142857142857" width="47.5" height="10.857142857142858" as="geometry"/>
                </mxCell>
                <mxCell id="145" value="8" style="strokeWidth=1;shadow=0;dashed=0;align=center;html=1;shape=mxgraph.mockup.forms.rrect;rSize=0;strokeColor=#999999;fontColor=#999999;" parent="127" vertex="1">
                    <mxGeometry x="23.75" y="36.91428571428572" width="47.5" height="10.857142857142858" as="geometry"/>
                </mxCell>
                <mxCell id="146" value="9" style="strokeWidth=1;shadow=0;dashed=0;align=center;html=1;shape=mxgraph.mockup.forms.rrect;rSize=0;strokeColor=#999999;fontColor=#999999;" parent="127" vertex="1">
                    <mxGeometry x="71.25" y="36.91428571428572" width="47.5" height="10.857142857142858" as="geometry"/>
                </mxCell>
                <mxCell id="147" value="10" style="strokeWidth=1;shadow=0;dashed=0;align=center;html=1;shape=mxgraph.mockup.forms.rrect;rSize=0;strokeColor=#999999;fontColor=#999999;" parent="127" vertex="1">
                    <mxGeometry x="118.75" y="36.91428571428572" width="47.5" height="10.857142857142858" as="geometry"/>
                </mxCell>
                <mxCell id="148" value="11" style="strokeWidth=1;shadow=0;dashed=0;align=center;html=1;shape=mxgraph.mockup.forms.rrect;rSize=0;strokeColor=#999999;fontColor=#999999;" parent="127" vertex="1">
                    <mxGeometry x="166.25" y="36.91428571428572" width="47.5" height="10.857142857142858" as="geometry"/>
                </mxCell>
                <mxCell id="149" value="12" style="strokeWidth=1;shadow=0;dashed=0;align=center;html=1;shape=mxgraph.mockup.forms.rrect;rSize=0;strokeColor=#999999;fontColor=#999999;" parent="127" vertex="1">
                    <mxGeometry x="213.75" y="36.91428571428572" width="47.5" height="10.857142857142858" as="geometry"/>
                </mxCell>
                <mxCell id="150" value="13" style="strokeWidth=1;shadow=0;dashed=0;align=center;html=1;shape=mxgraph.mockup.forms.rrect;rSize=0;strokeColor=#999999;fontColor=#999999;" parent="127" vertex="1">
                    <mxGeometry x="261.25" y="36.91428571428572" width="47.5" height="10.857142857142858" as="geometry"/>
                </mxCell>
                <mxCell id="151" value="14" style="strokeWidth=1;shadow=0;dashed=0;align=center;html=1;shape=mxgraph.mockup.forms.rrect;rSize=0;strokeColor=#999999;fontColor=#999999;" parent="127" vertex="1">
                    <mxGeometry x="308.75" y="36.91428571428572" width="47.5" height="10.857142857142858" as="geometry"/>
                </mxCell>
                <mxCell id="152" value="15" style="strokeWidth=1;shadow=0;dashed=0;align=center;html=1;shape=mxgraph.mockup.forms.rrect;rSize=0;strokeColor=#999999;fontColor=#999999;" parent="127" vertex="1">
                    <mxGeometry x="23.75" y="47.77142857142858" width="47.5" height="10.857142857142858" as="geometry"/>
                </mxCell>
                <mxCell id="153" value="16" style="strokeWidth=1;shadow=0;dashed=0;align=center;html=1;shape=mxgraph.mockup.forms.rrect;rSize=0;strokeColor=#999999;fontColor=#999999;" parent="127" vertex="1">
                    <mxGeometry x="71.25" y="47.77142857142858" width="47.5" height="10.857142857142858" as="geometry"/>
                </mxCell>
                <mxCell id="154" value="17" style="strokeWidth=1;shadow=0;dashed=0;align=center;html=1;shape=mxgraph.mockup.forms.rrect;rSize=0;strokeColor=#999999;fontColor=#999999;" parent="127" vertex="1">
                    <mxGeometry x="118.75" y="47.77142857142858" width="47.5" height="10.857142857142858" as="geometry"/>
                </mxCell>
                <mxCell id="155" value="18" style="strokeWidth=1;shadow=0;dashed=0;align=center;html=1;shape=mxgraph.mockup.forms.rrect;rSize=0;strokeColor=#999999;fontColor=#999999;" parent="127" vertex="1">
                    <mxGeometry x="166.25" y="47.77142857142858" width="47.5" height="10.857142857142858" as="geometry"/>
                </mxCell>
                <mxCell id="156" value="19" style="strokeWidth=1;shadow=0;dashed=0;align=center;html=1;shape=mxgraph.mockup.forms.rrect;rSize=0;strokeColor=#999999;fontColor=#999999;" parent="127" vertex="1">
                    <mxGeometry x="213.75" y="47.77142857142858" width="47.5" height="10.857142857142858" as="geometry"/>
                </mxCell>
                <mxCell id="157" value="20" style="strokeWidth=1;shadow=0;dashed=0;align=center;html=1;shape=mxgraph.mockup.forms.rrect;rSize=0;strokeColor=#999999;fontColor=#999999;" parent="127" vertex="1">
                    <mxGeometry x="261.25" y="47.77142857142858" width="47.5" height="10.857142857142858" as="geometry"/>
                </mxCell>
                <mxCell id="158" value="21" style="strokeWidth=1;shadow=0;dashed=0;align=center;html=1;shape=mxgraph.mockup.forms.rrect;rSize=0;strokeColor=#999999;fontColor=#999999;" parent="127" vertex="1">
                    <mxGeometry x="308.75" y="47.77142857142858" width="47.5" height="10.857142857142858" as="geometry"/>
                </mxCell>
                <mxCell id="159" value="22" style="strokeWidth=1;shadow=0;dashed=0;align=center;html=1;shape=mxgraph.mockup.forms.rrect;rSize=0;strokeColor=#999999;fontColor=#999999;" parent="127" vertex="1">
                    <mxGeometry x="23.75" y="58.62857142857143" width="47.5" height="10.857142857142858" as="geometry"/>
                </mxCell>
                <mxCell id="160" value="23" style="strokeWidth=1;shadow=0;dashed=0;align=center;html=1;shape=mxgraph.mockup.forms.rrect;rSize=0;strokeColor=#999999;fontColor=#999999;" parent="127" vertex="1">
                    <mxGeometry x="71.25" y="58.62857142857143" width="47.5" height="10.857142857142858" as="geometry"/>
                </mxCell>
                <mxCell id="161" value="25" style="strokeWidth=1;shadow=0;dashed=0;align=center;html=1;shape=mxgraph.mockup.forms.rrect;rSize=0;strokeColor=#999999;fontColor=#999999;" parent="127" vertex="1">
                    <mxGeometry x="166.25" y="58.62857142857143" width="47.5" height="10.857142857142858" as="geometry"/>
                </mxCell>
                <mxCell id="162" value="26" style="strokeWidth=1;shadow=0;dashed=0;align=center;html=1;shape=mxgraph.mockup.forms.rrect;rSize=0;strokeColor=#999999;fontColor=#999999;" parent="127" vertex="1">
                    <mxGeometry x="213.75" y="58.62857142857143" width="47.5" height="10.857142857142858" as="geometry"/>
                </mxCell>
                <mxCell id="163" value="27" style="strokeWidth=1;shadow=0;dashed=0;align=center;html=1;shape=mxgraph.mockup.forms.rrect;rSize=0;strokeColor=#999999;fontColor=#999999;" parent="127" vertex="1">
                    <mxGeometry x="261.25" y="58.62857142857143" width="47.5" height="10.857142857142858" as="geometry"/>
                </mxCell>
                <mxCell id="164" value="28" style="strokeWidth=1;shadow=0;dashed=0;align=center;html=1;shape=mxgraph.mockup.forms.rrect;rSize=0;strokeColor=#999999;fontColor=#999999;" parent="127" vertex="1">
                    <mxGeometry x="308.75" y="58.62857142857143" width="47.5" height="10.857142857142858" as="geometry"/>
                </mxCell>
                <mxCell id="165" value="29" style="strokeWidth=1;shadow=0;dashed=0;align=center;html=1;shape=mxgraph.mockup.forms.rrect;rSize=0;strokeColor=#999999;fontColor=#999999;" parent="127" vertex="1">
                    <mxGeometry x="23.75" y="69.4857142857143" width="47.5" height="10.857142857142858" as="geometry"/>
                </mxCell>
                <mxCell id="166" value="30" style="strokeWidth=1;shadow=0;dashed=0;align=center;html=1;shape=mxgraph.mockup.forms.rrect;rSize=0;strokeColor=#999999;fontColor=#999999;" parent="127" vertex="1">
                    <mxGeometry x="71.25" y="69.4857142857143" width="47.5" height="10.857142857142858" as="geometry"/>
                </mxCell>
                <mxCell id="167" value="31" style="strokeWidth=1;shadow=0;dashed=0;align=center;html=1;shape=mxgraph.mockup.forms.rrect;rSize=0;strokeColor=#999999;fontColor=#999999;" parent="127" vertex="1">
                    <mxGeometry x="118.75" y="69.4857142857143" width="47.5" height="10.857142857142858" as="geometry"/>
                </mxCell>
                <mxCell id="168" value="1" style="strokeWidth=1;shadow=0;dashed=0;align=center;html=1;shape=mxgraph.mockup.forms.rrect;rSize=0;strokeColor=#999999;fontColor=#999999;fillColor=#ddeeff;" parent="127" vertex="1">
                    <mxGeometry x="166.25" y="69.4857142857143" width="47.5" height="10.857142857142858" as="geometry"/>
                </mxCell>
                <mxCell id="169" value="2" style="strokeWidth=1;shadow=0;dashed=0;align=center;html=1;shape=mxgraph.mockup.forms.rrect;rSize=0;strokeColor=#999999;fontColor=#999999;fillColor=#ddeeff;" parent="127" vertex="1">
                    <mxGeometry x="213.75" y="69.4857142857143" width="47.5" height="10.857142857142858" as="geometry"/>
                </mxCell>
                <mxCell id="170" value="3" style="strokeWidth=1;shadow=0;dashed=0;align=center;html=1;shape=mxgraph.mockup.forms.rrect;rSize=0;strokeColor=#999999;fontColor=#999999;fillColor=#ddeeff;" parent="127" vertex="1">
                    <mxGeometry x="261.25" y="69.4857142857143" width="47.5" height="10.857142857142858" as="geometry"/>
                </mxCell>
                <mxCell id="171" value="4" style="strokeWidth=1;shadow=0;dashed=0;align=center;html=1;shape=mxgraph.mockup.forms.rrect;rSize=0;strokeColor=#999999;fontColor=#999999;fillColor=#ddeeff;" parent="127" vertex="1">
                    <mxGeometry x="308.75" y="69.4857142857143" width="47.5" height="10.857142857142858" as="geometry"/>
                </mxCell>
                <mxCell id="172" value="5" style="strokeWidth=1;shadow=0;dashed=0;align=center;html=1;shape=mxgraph.mockup.forms.rrect;rSize=0;strokeColor=#999999;fontColor=#999999;fillColor=#ddeeff;" parent="127" vertex="1">
                    <mxGeometry x="23.75" y="80.34285714285714" width="47.5" height="10.857142857142858" as="geometry"/>
                </mxCell>
                <mxCell id="173" value="6" style="strokeWidth=1;shadow=0;dashed=0;align=center;html=1;shape=mxgraph.mockup.forms.rrect;rSize=0;strokeColor=#999999;fontColor=#999999;fillColor=#ddeeff;" parent="127" vertex="1">
                    <mxGeometry x="71.25" y="80.34285714285714" width="47.5" height="10.857142857142858" as="geometry"/>
                </mxCell>
                <mxCell id="174" value="7" style="strokeWidth=1;shadow=0;dashed=0;align=center;html=1;shape=mxgraph.mockup.forms.rrect;rSize=0;strokeColor=#999999;fontColor=#999999;fillColor=#ddeeff;" parent="127" vertex="1">
                    <mxGeometry x="118.75" y="80.34285714285714" width="47.5" height="10.857142857142858" as="geometry"/>
                </mxCell>
                <mxCell id="175" value="8" style="strokeWidth=1;shadow=0;dashed=0;align=center;html=1;shape=mxgraph.mockup.forms.rrect;rSize=0;strokeColor=#999999;fontColor=#999999;fillColor=#ddeeff;" parent="127" vertex="1">
                    <mxGeometry x="166.25" y="80.34285714285714" width="47.5" height="10.857142857142858" as="geometry"/>
                </mxCell>
                <mxCell id="176" value="9" style="strokeWidth=1;shadow=0;dashed=0;align=center;html=1;shape=mxgraph.mockup.forms.rrect;rSize=0;strokeColor=#999999;fontColor=#999999;fillColor=#ddeeff;" parent="127" vertex="1">
                    <mxGeometry x="213.75" y="80.34285714285714" width="47.5" height="10.857142857142858" as="geometry"/>
                </mxCell>
                <mxCell id="177" value="10" style="strokeWidth=1;shadow=0;dashed=0;align=center;html=1;shape=mxgraph.mockup.forms.rrect;rSize=0;strokeColor=#999999;fontColor=#999999;fillColor=#ddeeff;" parent="127" vertex="1">
                    <mxGeometry x="261.25" y="80.34285714285714" width="47.5" height="10.857142857142858" as="geometry"/>
                </mxCell>
                <mxCell id="178" value="11" style="strokeWidth=1;shadow=0;dashed=0;align=center;html=1;shape=mxgraph.mockup.forms.rrect;rSize=0;strokeColor=#999999;fontColor=#999999;fillColor=#ddeeff;" parent="127" vertex="1">
                    <mxGeometry x="308.75" y="80.34285714285714" width="47.5" height="10.857142857142858" as="geometry"/>
                </mxCell>
                <mxCell id="179" value="24" style="strokeWidth=1;shadow=0;dashed=0;align=center;html=1;shape=mxgraph.mockup.forms.rrect;rSize=0;strokeColor=#ff0000;fontColor=#ffffff;strokeWidth=2;fillColor=#008cff;" parent="127" vertex="1">
                    <mxGeometry x="118.75" y="58.62857142857143" width="47.5" height="10.857142857142858" as="geometry"/>
                </mxCell>
                <mxCell id="180" value="Statistiques" style="rounded=0;whiteSpace=wrap;html=1;" parent="1" vertex="1">
                    <mxGeometry x="90" y="430" width="120" height="60" as="geometry"/>
                </mxCell>
                <mxCell id="181" value="Statistiques" style="rounded=0;whiteSpace=wrap;html=1;" parent="1" vertex="1">
                    <mxGeometry x="690" y="430" width="120" height="60" as="geometry"/>
                </mxCell>
                <mxCell id="184" value="" style="sketch=0;html=1;aspect=fixed;strokeColor=none;shadow=0;fillColor=#3B8DF1;verticalAlign=top;labelPosition=center;verticalLabelPosition=bottom;shape=mxgraph.gcp2.globe_world" parent="1" vertex="1">
                    <mxGeometry x="490" y="50" width="15.79" height="15" as="geometry"/>
                </mxCell>
                <mxCell id="185" value="" style="endArrow=classic;html=1;" parent="1" target="186" edge="1">
                    <mxGeometry width="50" height="50" relative="1" as="geometry">
                        <mxPoint x="498" y="50" as="sourcePoint"/>
                        <mxPoint x="548" as="targetPoint"/>
                    </mxGeometry>
                </mxCell>
                <mxCell id="186" value="Change language" style="text;html=1;align=center;verticalAlign=middle;whiteSpace=wrap;rounded=0;" parent="1" vertex="1">
                    <mxGeometry x="490" width="98" height="20" as="geometry"/>
                </mxCell>
                <mxCell id="187" value="" style="sketch=0;html=1;aspect=fixed;strokeColor=none;shadow=0;fillColor=#3B8DF1;verticalAlign=top;labelPosition=center;verticalLabelPosition=bottom;shape=mxgraph.gcp2.globe_world" parent="1" vertex="1">
                    <mxGeometry x="1098" y="50" width="15.79" height="15" as="geometry"/>
                </mxCell>
                <mxCell id="188" value="" style="endArrow=classic;html=1;" parent="1" target="189" edge="1">
                    <mxGeometry width="50" height="50" relative="1" as="geometry">
                        <mxPoint x="1106" y="50" as="sourcePoint"/>
                        <mxPoint x="1156" as="targetPoint"/>
                    </mxGeometry>
                </mxCell>
                <mxCell id="189" value="Change language" style="text;html=1;align=center;verticalAlign=middle;whiteSpace=wrap;rounded=0;" parent="1" vertex="1">
                    <mxGeometry x="1098" width="98" height="20" as="geometry"/>
                </mxCell>
                <mxCell id="190" value="" style="sketch=0;html=1;aspect=fixed;strokeColor=none;shadow=0;fillColor=#3B8DF1;verticalAlign=top;labelPosition=center;verticalLabelPosition=bottom;shape=mxgraph.gcp2.globe_world" parent="1" vertex="1">
                    <mxGeometry x="-182.23000000000002" y="50" width="15.79" height="15" as="geometry"/>
                </mxCell>
                <mxCell id="191" value="" style="endArrow=classic;html=1;" parent="1" target="192" edge="1">
                    <mxGeometry width="50" height="50" relative="1" as="geometry">
                        <mxPoint x="-174.23000000000002" y="50" as="sourcePoint"/>
                        <mxPoint x="-124.23000000000002" as="targetPoint"/>
                    </mxGeometry>
                </mxCell>
                <mxCell id="192" value="Change language" style="text;html=1;align=center;verticalAlign=middle;whiteSpace=wrap;rounded=0;" parent="1" vertex="1">
                    <mxGeometry x="-182.23000000000002" width="98" height="20" as="geometry"/>
                </mxCell>
                <mxCell id="193" value="" style="rounded=0;whiteSpace=wrap;html=1;fillColor=#d5e8d4;strokeColor=#82b366;" parent="1" vertex="1">
                    <mxGeometry x="40" y="590" width="480" height="80" as="geometry"/>
                </mxCell>
                <mxCell id="194" value="copyrights" style="rounded=0;whiteSpace=wrap;html=1;" parent="1" vertex="1">
                    <mxGeometry x="210" y="645" width="140" height="20" as="geometry"/>
                </mxCell>
                <mxCell id="195" value="about" style="rounded=0;whiteSpace=wrap;html=1;" parent="1" vertex="1">
                    <mxGeometry x="60" y="604" width="300" height="30" as="geometry"/>
                </mxCell>
                <mxCell id="196" value="" style="dashed=0;outlineConnect=0;html=1;align=center;labelPosition=center;verticalLabelPosition=bottom;verticalAlign=top;shape=mxgraph.webicons.facebook;fillColor=#6294E4;gradientColor=#1A2665" parent="1" vertex="1">
                    <mxGeometry x="422" y="610" width="40" height="40" as="geometry"/>
                </mxCell>
                <mxCell id="197" value="" style="dashed=0;outlineConnect=0;html=1;align=center;labelPosition=center;verticalLabelPosition=bottom;verticalAlign=top;shape=mxgraph.weblogos.instagram;fillColor=#6FC0E4;gradientColor=#1E305B" parent="1" vertex="1">
                    <mxGeometry x="372" y="610" width="40" height="40" as="geometry"/>
                </mxCell>
                <mxCell id="198" value="" style="dashed=0;outlineConnect=0;html=1;align=center;labelPosition=center;verticalLabelPosition=bottom;verticalAlign=top;shape=mxgraph.webicons.twitter;fillColor=#49EAF7;strokeColor=none;gradientColor=#137BD0;" parent="1" vertex="1">
                    <mxGeometry x="470" y="610" width="40" height="40" as="geometry"/>
                </mxCell>
                <mxCell id="199" value="" style="rounded=0;whiteSpace=wrap;html=1;fillColor=#d5e8d4;strokeColor=#82b366;" parent="1" vertex="1">
                    <mxGeometry x="640" y="590" width="480" height="80" as="geometry"/>
                </mxCell>
                <mxCell id="200" value="copyrights" style="rounded=0;whiteSpace=wrap;html=1;" parent="1" vertex="1">
                    <mxGeometry x="810" y="645" width="140" height="20" as="geometry"/>
                </mxCell>
                <mxCell id="201" value="about" style="rounded=0;whiteSpace=wrap;html=1;" parent="1" vertex="1">
                    <mxGeometry x="660" y="604" width="300" height="30" as="geometry"/>
                </mxCell>
                <mxCell id="202" value="" style="dashed=0;outlineConnect=0;html=1;align=center;labelPosition=center;verticalLabelPosition=bottom;verticalAlign=top;shape=mxgraph.webicons.facebook;fillColor=#6294E4;gradientColor=#1A2665" parent="1" vertex="1">
                    <mxGeometry x="1022" y="610" width="40" height="40" as="geometry"/>
                </mxCell>
                <mxCell id="203" value="" style="dashed=0;outlineConnect=0;html=1;align=center;labelPosition=center;verticalLabelPosition=bottom;verticalAlign=top;shape=mxgraph.weblogos.instagram;fillColor=#6FC0E4;gradientColor=#1E305B" parent="1" vertex="1">
                    <mxGeometry x="972" y="610" width="40" height="40" as="geometry"/>
                </mxCell>
                <mxCell id="204" value="" style="dashed=0;outlineConnect=0;html=1;align=center;labelPosition=center;verticalLabelPosition=bottom;verticalAlign=top;shape=mxgraph.webicons.twitter;fillColor=#49EAF7;strokeColor=none;gradientColor=#137BD0;" parent="1" vertex="1">
                    <mxGeometry x="1070" y="610" width="40" height="40" as="geometry"/>
                </mxCell>
                <mxCell id="205" value="" style="strokeColor=#999999;verticalLabelPosition=bottom;shadow=0;dashed=0;verticalAlign=top;strokeWidth=2;html=1;shape=mxgraph.mockup.misc.copyrightIcon;" parent="1" vertex="1">
                    <mxGeometry x="215" y="647.5" width="15" height="15" as="geometry"/>
                </mxCell>
                <mxCell id="206" value="" style="strokeColor=#999999;verticalLabelPosition=bottom;shadow=0;dashed=0;verticalAlign=top;strokeWidth=2;html=1;shape=mxgraph.mockup.misc.copyrightIcon;" parent="1" vertex="1">
                    <mxGeometry x="816" y="647.5" width="15" height="15" as="geometry"/>
                </mxCell>
                <mxCell id="207" value="" style="rounded=0;whiteSpace=wrap;html=1;fillColor=#d5e8d4;strokeColor=#82b366;" vertex="1" parent="1">
                    <mxGeometry x="-640" y="590" width="480" height="80" as="geometry"/>
                </mxCell>
                <mxCell id="208" value="copyrights" style="rounded=0;whiteSpace=wrap;html=1;" vertex="1" parent="1">
                    <mxGeometry x="-470" y="645" width="140" height="20" as="geometry"/>
                </mxCell>
                <mxCell id="209" value="about" style="rounded=0;whiteSpace=wrap;html=1;" vertex="1" parent="1">
                    <mxGeometry x="-620" y="604" width="300" height="30" as="geometry"/>
                </mxCell>
                <mxCell id="210" value="" style="dashed=0;outlineConnect=0;html=1;align=center;labelPosition=center;verticalLabelPosition=bottom;verticalAlign=top;shape=mxgraph.webicons.facebook;fillColor=#6294E4;gradientColor=#1A2665" vertex="1" parent="1">
                    <mxGeometry x="-258" y="610" width="40" height="40" as="geometry"/>
                </mxCell>
                <mxCell id="211" value="" style="dashed=0;outlineConnect=0;html=1;align=center;labelPosition=center;verticalLabelPosition=bottom;verticalAlign=top;shape=mxgraph.weblogos.instagram;fillColor=#6FC0E4;gradientColor=#1E305B" vertex="1" parent="1">
                    <mxGeometry x="-308" y="610" width="40" height="40" as="geometry"/>
                </mxCell>
                <mxCell id="212" value="" style="dashed=0;outlineConnect=0;html=1;align=center;labelPosition=center;verticalLabelPosition=bottom;verticalAlign=top;shape=mxgraph.webicons.twitter;fillColor=#49EAF7;strokeColor=none;gradientColor=#137BD0;" vertex="1" parent="1">
                    <mxGeometry x="-210" y="610" width="40" height="40" as="geometry"/>
                </mxCell>
                <mxCell id="213" value="" style="strokeColor=#999999;verticalLabelPosition=bottom;shadow=0;dashed=0;verticalAlign=top;strokeWidth=2;html=1;shape=mxgraph.mockup.misc.copyrightIcon;" vertex="1" parent="1">
                    <mxGeometry x="-465" y="647.5" width="15" height="15" as="geometry"/>
                </mxCell>
            </root>
        </mxGraphModel>
    </diagram>
</mxfile>
